<svg width="50" height="50" viewBox="0 0 50 50" fill="none" xmlns="http://www.w3.org/2000/svg">
<path fill-rule="evenodd" clip-rule="evenodd" d="M25 49C38.2548 49 49 38.2548 49 25C49 11.7452 38.2548 1 25 1C11.7452 1 1 11.7452 1 25C1 38.2548 11.7452 49 25 49Z" stroke="#F3F3F3" stroke-width="1.5"/>
<path d="M27.0631 17.8891H29.8199C30.0735 17.8891 30.2794 17.6899 30.2794 17.4446V14.7779C30.2794 14.5326 30.0735 14.3335 29.8199 14.3335H27.0631C24.2769 14.3335 22.009 16.5264 22.009 19.2224V22.3335H18.7928C18.5392 22.3335 18.3333 22.5326 18.3333 22.7779V25.4446C18.3333 25.6899 18.5392 25.8891 18.7928 25.8891H22.009V35.2224C22.009 35.4677 22.2149 35.6668 22.4685 35.6668H25.2253C25.4789 35.6668 25.6847 35.4677 25.6847 35.2224V25.8891H28.901C29.0986 25.8891 29.2741 25.7664 29.3375 25.5851L30.2564 22.9184C30.3033 22.7833 30.2794 22.6339 30.193 22.5175C30.1057 22.4019 29.9679 22.3335 29.8199 22.3335H25.6847V19.2224C25.6847 18.4873 26.3032 17.8891 27.0631 17.8891Z" fill="#888888"/>
</svg>
