<svg width="50" height="50" viewBox="0 0 50 50" fill="none" xmlns="http://www.w3.org/2000/svg">
<path fill-rule="evenodd" clip-rule="evenodd" d="M25 49C38.2548 49 49 38.2548 49 25C49 11.7452 38.2548 1 25 1C11.7452 1 1 11.7452 1 25C1 38.2548 11.7452 49 25 49Z" stroke="#F3F3F3" stroke-width="1.5"/>
<path fill-rule="evenodd" clip-rule="evenodd" d="M25.0033 19.5306C21.9764 19.5306 19.5349 21.9726 19.5349 25.0002C19.5349 28.0277 21.9764 30.4698 25.0033 30.4698C28.0302 30.4698 30.4717 28.0277 30.4717 25.0002C30.4717 21.9726 28.0302 19.5306 25.0033 19.5306ZM25.0025 28.5559C23.0465 28.5559 21.4474 26.9612 21.4474 25C21.4474 23.0387 23.0417 21.444 25.0025 21.444C26.9634 21.444 28.5577 23.0387 28.5577 25C28.5577 26.9612 26.9586 28.5559 25.0025 28.5559ZM31.9692 19.3063C31.9692 20.0156 31.3981 20.5821 30.6937 20.5821C29.9846 20.5821 29.4182 20.0109 29.4182 19.3063C29.4182 18.6018 29.9893 18.0306 30.6937 18.0306C31.3981 18.0306 31.9692 18.6018 31.9692 19.3063ZM35.5917 20.6016C35.5108 18.8927 35.1206 17.3789 33.8689 16.1317C32.6219 14.8845 31.1085 14.4942 29.3999 14.4085C27.639 14.3085 22.361 14.3085 20.6001 14.4085C18.8963 14.4894 17.3828 14.8797 16.1311 16.1269C14.8795 17.3741 14.494 18.8879 14.4083 20.5969C14.3084 22.3582 14.3084 27.6374 14.4083 29.3987C14.4892 31.1076 14.8795 32.6214 16.1311 33.8686C17.3828 35.1158 18.8915 35.5062 20.6001 35.5919C22.361 35.6918 27.639 35.6918 29.3999 35.5919C31.1085 35.5109 32.6219 35.1206 33.8689 33.8686C35.1158 32.6214 35.5061 31.1076 35.5917 29.3987C35.6917 27.6374 35.6917 22.363 35.5917 20.6016ZM33.3158 31.2881C32.9446 32.2211 32.2259 32.9399 31.2884 33.316C29.8844 33.8729 26.5529 33.7444 25.0014 33.7444C23.4499 33.7444 20.1137 33.8682 18.7144 33.316C17.7816 32.9447 17.063 32.2258 16.687 31.2881C16.1302 29.8838 16.2587 26.5516 16.2587 24.9997C16.2587 23.4478 16.1349 20.1109 16.687 18.7113C17.0582 17.7783 17.7769 17.0595 18.7144 16.6834C20.1184 16.1265 23.4499 16.255 25.0014 16.255C26.5529 16.255 29.8892 16.1312 31.2884 16.6834C32.2212 17.0547 32.9398 17.7735 33.3158 18.7113C33.8726 20.1156 33.7441 23.4478 33.7441 24.9997C33.7441 26.5516 33.8726 29.8885 33.3158 31.2881Z" fill="#888888"/>
</svg>
