<svg width="124" height="51" viewBox="0 0 124 51" fill="none" xmlns="http://www.w3.org/2000/svg">
<path d="M25.4 2.04444V3.95556H14.7333V31.5111H10.6667V3.95556H0V2.04444H25.4Z" fill="#A90000"/>
<path d="M43.1813 28.4C43.1813 29.0815 43.3887 29.6963 43.8036 30.2444C44.2184 30.7926 44.7369 31.2148 45.3591 31.5111H41.4036C40.885 31.2593 40.4406 30.8667 40.0702 30.3333C39.7147 29.7852 39.5369 29.1407 39.5369 28.4C39.0924 28.7111 38.5961 29.0741 38.048 29.4889C37.5147 29.9037 36.9147 30.2963 36.248 30.6667C35.5813 31.037 34.8406 31.3481 34.0258 31.6C33.211 31.8667 32.3073 32 31.3147 32C30.485 32 29.7369 31.8519 29.0702 31.5556C28.4184 31.2741 27.8628 30.8815 27.4036 30.3778C26.9443 29.8741 26.5887 29.2741 26.3369 28.5778C26.085 27.8815 25.9591 27.1333 25.9591 26.3333C25.9591 25.3407 26.1443 24.4444 26.5147 23.6444C26.8999 22.8444 27.4184 22.1259 28.0702 21.4889C28.7369 20.837 29.5073 20.2667 30.3813 19.7778C31.2702 19.2741 32.2184 18.8296 33.2258 18.4444C34.2332 18.0444 35.2776 17.6963 36.3591 17.4C37.4406 17.1037 38.4999 16.8296 39.5369 16.5778V15.4C39.5369 14.363 39.4554 13.4889 39.2924 12.7778C39.1295 12.0667 38.8702 11.4963 38.5147 11.0667C38.1739 10.6222 37.7369 10.3111 37.2036 10.1333C36.6702 9.94074 36.0258 9.84444 35.2702 9.84444C34.5739 9.84444 33.9295 9.97037 33.3369 10.2222C32.7443 10.4741 32.2258 10.8148 31.7813 11.2444C31.3369 11.6593 30.9739 12.1556 30.6924 12.7333C30.411 13.2963 30.2258 13.8963 30.1369 14.5333H26.8924C27.011 13.5556 27.3369 12.6815 27.8702 11.9111C28.4036 11.1407 29.0702 10.4963 29.8702 9.97778C30.685 9.44444 31.5961 9.03704 32.6036 8.75556C33.6258 8.47407 34.685 8.33333 35.7813 8.33333C37.1887 8.33333 38.3665 8.48148 39.3147 8.77778C40.2628 9.05926 41.0184 9.45926 41.5813 9.97778C42.1591 10.4963 42.5665 11.1333 42.8036 11.8889C43.0554 12.6296 43.1813 13.4519 43.1813 14.3556V28.4ZM39.5369 18.2667C38.3961 18.5778 37.2332 18.9704 36.048 19.4444C34.8628 19.9037 33.7887 20.4222 32.8258 21C31.8776 21.5778 31.0999 22.2148 30.4924 22.9111C29.885 23.6074 29.5813 24.3481 29.5813 25.1333C29.5813 25.6963 29.6924 26.2296 29.9147 26.7333C30.1517 27.2222 30.4628 27.6593 30.848 28.0444C31.2332 28.4148 31.6702 28.7111 32.1591 28.9333C32.6628 29.1407 33.1813 29.2444 33.7147 29.2444C34.2924 29.2444 34.8258 29.163 35.3147 29C35.8184 28.837 36.2999 28.6296 36.7591 28.3778C37.2184 28.1111 37.6702 27.8148 38.1147 27.4889C38.5739 27.1481 39.048 26.8 39.5369 26.4444V18.2667Z" fill="#A90000"/>
<path d="M47.7627 1.15556L50.6738 0H51.4071V12.5111C51.9849 11.8741 52.6145 11.2963 53.296 10.7778C53.9923 10.2593 54.696 9.82222 55.4071 9.46667C56.133 9.0963 56.859 8.81482 57.5849 8.62222C58.3108 8.42963 58.9997 8.33333 59.6516 8.33333C60.9108 8.33333 62.0664 8.6 63.1182 9.13333C64.1701 9.66667 65.0738 10.3926 65.8293 11.3111C66.5997 12.2296 67.1997 13.3037 67.6293 14.5333C68.059 15.7481 68.2738 17.0519 68.2738 18.4444C68.2738 20.3259 67.9553 22.0889 67.3182 23.7333C66.6812 25.3778 65.8071 26.8148 64.696 28.0444C63.5997 29.2593 62.3034 30.2222 60.8071 30.9333C59.3256 31.6444 57.7404 32 56.0516 32C54.4516 32 52.9479 31.7926 51.5404 31.3778C50.133 30.9481 48.8738 30.3037 47.7627 29.4444V1.15556ZM51.4071 27.8H51.5404C51.8219 28.0667 52.133 28.3407 52.4738 28.6222C52.8145 28.9037 53.1997 29.163 53.6293 29.4C54.059 29.6222 54.5479 29.8074 55.096 29.9556C55.659 30.0889 56.296 30.1556 57.0071 30.1556C58.1182 30.1556 59.133 29.9037 60.0516 29.4C60.9701 28.8815 61.7553 28.1704 62.4071 27.2667C63.059 26.3481 63.5627 25.2667 63.9182 24.0222C64.2738 22.763 64.4516 21.3926 64.4516 19.9111C64.4516 18.7852 64.2664 17.7333 63.896 16.7556C63.5256 15.763 63.0219 14.9037 62.3849 14.1778C61.7479 13.437 60.9923 12.8593 60.1182 12.4444C59.259 12.0148 58.3404 11.8 57.3627 11.8C56.7997 11.8 56.2219 11.8741 55.6293 12.0222C55.0516 12.1704 54.496 12.3704 53.9627 12.6222C53.4442 12.8741 52.9701 13.1704 52.5404 13.5111C52.1108 13.837 51.7627 14.1926 51.496 14.5778H51.4071V27.8Z" fill="#A90000"/>
<path d="M72.344 9.51111L75.2329 8.33333H75.944V31.5111H72.344V9.51111ZM71.9884 2.88889C71.9884 2.53333 72.0403 2.2 72.144 1.88889C72.2625 1.57778 72.4181 1.3037 72.6107 1.06667C72.8033 0.82963 73.0255 0.644444 73.2773 0.511111C73.544 0.377778 73.8255 0.311111 74.1218 0.311111C74.4181 0.311111 74.6921 0.377778 74.944 0.511111C75.2107 0.644444 75.4403 0.82963 75.6329 1.06667C75.8255 1.3037 75.9736 1.57778 76.0773 1.88889C76.1959 2.2 76.2551 2.53333 76.2551 2.88889C76.2551 3.24444 76.1959 3.57778 76.0773 3.88889C75.9736 4.2 75.8255 4.47407 75.6329 4.71111C75.4403 4.94815 75.2107 5.13333 74.944 5.26667C74.6921 5.4 74.4181 5.46667 74.1218 5.46667C73.8255 5.46667 73.544 5.4 73.2773 5.26667C73.0255 5.13333 72.8033 4.94815 72.6107 4.71111C72.4181 4.47407 72.2625 4.2 72.144 3.88889C72.0403 3.57778 71.9884 3.24444 71.9884 2.88889Z" fill="#A90000"/>
<path d="M81.5031 1.15556L84.4142 0H85.1476V12.5111C85.7253 11.8741 86.355 11.2963 87.0364 10.7778C87.7327 10.2593 88.4364 9.82222 89.1476 9.46667C89.8735 9.0963 90.5994 8.81482 91.3253 8.62222C92.0513 8.42963 92.7402 8.33333 93.392 8.33333C94.6513 8.33333 95.8068 8.6 96.8587 9.13333C97.9105 9.66667 98.8142 10.3926 99.5698 11.3111C100.34 12.2296 100.94 13.3037 101.37 14.5333C101.799 15.7481 102.014 17.0519 102.014 18.4444C102.014 20.3259 101.696 22.0889 101.059 23.7333C100.422 25.3778 99.5476 26.8148 98.4364 28.0444C97.3402 29.2593 96.0439 30.2222 94.5476 30.9333C93.0661 31.6444 91.4809 32 89.792 32C88.192 32 86.6883 31.7926 85.2809 31.3778C83.8735 30.9481 82.6142 30.3037 81.5031 29.4444V1.15556ZM85.1476 27.8H85.2809C85.5624 28.0667 85.8735 28.3407 86.2142 28.6222C86.555 28.9037 86.9402 29.163 87.3698 29.4C87.7994 29.6222 88.2883 29.8074 88.8364 29.9556C89.3994 30.0889 90.0364 30.1556 90.7476 30.1556C91.8587 30.1556 92.8735 29.9037 93.792 29.4C94.7105 28.8815 95.4957 28.1704 96.1476 27.2667C96.7994 26.3481 97.3031 25.2667 97.6587 24.0222C98.0142 22.763 98.192 21.3926 98.192 19.9111C98.192 18.7852 98.0068 17.7333 97.6364 16.7556C97.2661 15.763 96.7624 14.9037 96.1253 14.1778C95.4883 13.437 94.7327 12.8593 93.8587 12.4444C92.9994 12.0148 92.0809 11.8 91.1031 11.8C90.5402 11.8 89.9624 11.8741 89.3698 12.0222C88.792 12.1704 88.2364 12.3704 87.7031 12.6222C87.1846 12.8741 86.7105 13.1704 86.2809 13.5111C85.8513 13.837 85.5031 14.1926 85.2364 14.5778H85.1476V27.8Z" fill="#A90000"/>
<path d="M121.418 28.4C121.418 29.0815 121.625 29.6963 122.04 30.2444C122.455 30.7926 122.973 31.2148 123.596 31.5111H119.64C119.121 31.2593 118.677 30.8667 118.307 30.3333C117.951 29.7852 117.773 29.1407 117.773 28.4C117.329 28.7111 116.833 29.0741 116.284 29.4889C115.751 29.9037 115.151 30.2963 114.484 30.6667C113.818 31.037 113.077 31.3481 112.262 31.6C111.447 31.8667 110.544 32 109.551 32C108.721 32 107.973 31.8519 107.307 31.5556C106.655 31.2741 106.099 30.8815 105.64 30.3778C105.181 29.8741 104.825 29.2741 104.573 28.5778C104.321 27.8815 104.196 27.1333 104.196 26.3333C104.196 25.3407 104.381 24.4444 104.751 23.6444C105.136 22.8444 105.655 22.1259 106.307 21.4889C106.973 20.837 107.744 20.2667 108.618 19.7778C109.507 19.2741 110.455 18.8296 111.462 18.4444C112.47 18.0444 113.514 17.6963 114.596 17.4C115.677 17.1037 116.736 16.8296 117.773 16.5778V15.4C117.773 14.363 117.692 13.4889 117.529 12.7778C117.366 12.0667 117.107 11.4963 116.751 11.0667C116.41 10.6222 115.973 10.3111 115.44 10.1333C114.907 9.94074 114.262 9.84444 113.507 9.84444C112.81 9.84444 112.166 9.97037 111.573 10.2222C110.981 10.4741 110.462 10.8148 110.018 11.2444C109.573 11.6593 109.21 12.1556 108.929 12.7333C108.647 13.2963 108.462 13.8963 108.373 14.5333H105.129C105.247 13.5556 105.573 12.6815 106.107 11.9111C106.64 11.1407 107.307 10.4963 108.107 9.97778C108.921 9.44444 109.833 9.03704 110.84 8.75556C111.862 8.47407 112.921 8.33333 114.018 8.33333C115.425 8.33333 116.603 8.48148 117.551 8.77778C118.499 9.05926 119.255 9.45926 119.818 9.97778C120.396 10.4963 120.803 11.1333 121.04 11.8889C121.292 12.6296 121.418 13.4519 121.418 14.3556V28.4ZM117.773 18.2667C116.633 18.5778 115.47 18.9704 114.284 19.4444C113.099 19.9037 112.025 20.4222 111.062 21C110.114 21.5778 109.336 22.2148 108.729 22.9111C108.121 23.6074 107.818 24.3481 107.818 25.1333C107.818 25.6963 107.929 26.2296 108.151 26.7333C108.388 27.2222 108.699 27.6593 109.084 28.0444C109.47 28.4148 109.907 28.7111 110.396 28.9333C110.899 29.1407 111.418 29.2444 111.951 29.2444C112.529 29.2444 113.062 29.163 113.551 29C114.055 28.837 114.536 28.6296 114.996 28.3778C115.455 28.1111 115.907 27.8148 116.351 27.4889C116.81 27.1481 117.284 26.8 117.773 26.4444V18.2667Z" fill="#A90000"/>
<path fill-rule="evenodd" clip-rule="evenodd" d="M87.319 40.9236C90.127 38.9742 93.7658 38.6837 96.8475 40.163L103.727 43.465C106.433 44.7637 109.457 45.249 112.433 44.8619L120.5 44L123.193 46.4875L112.82 47.8368C109.268 48.2989 105.658 47.7197 102.429 46.1695L95.5493 42.8675C93.4408 41.8554 90.9511 42.0542 89.0298 43.3879L80.9914 48.9683C78.5517 50.662 75.4603 51.1172 72.6359 50.1987L63.9003 47.3579C62.1525 46.7895 60.3261 46.5 58.4882 46.5H0L2 43.5H58.4882C60.6411 43.5 62.7806 43.8391 64.828 44.505L73.5637 47.3458C75.4962 47.9743 77.6114 47.6628 79.2806 46.5039L87.319 40.9236Z" fill="#A90000"/>
</svg>
