<svg width="50" height="50" viewBox="0 0 50 50" fill="none" xmlns="http://www.w3.org/2000/svg">
<path fill-rule="evenodd" clip-rule="evenodd" d="M25 49C38.2548 49 49 38.2548 49 25C49 11.7452 38.2548 1 25 1C11.7452 1 1 11.7452 1 25C1 38.2548 11.7452 49 25 49Z" stroke="#F3F3F3" stroke-width="1.5"/>
<path d="M19.6906 32.4757C19.055 32.4757 19.1631 32.2357 18.9439 31.6305L17.0749 25.4798L31.4614 16.9448" fill="#9E9E9E"/>
<path d="M19.6906 32.476C20.1811 32.476 20.3977 32.2517 20.6715 31.9856L23.2873 29.4421L20.0245 27.4746" fill="#565656"/>
<path d="M20.0241 27.4749L27.9302 33.316C28.8324 33.8138 29.4834 33.556 29.7082 32.4784L32.9264 17.3133C33.2558 15.9923 32.4228 15.393 31.5596 15.7849L12.6626 23.0715C11.3728 23.5889 11.3805 24.3085 12.4276 24.6291L17.277 26.1428L28.5038 19.0599C29.0338 18.7385 29.5204 18.9112 29.1211 19.2656" fill="url(#paint0_linear_37_224)"/>
<defs>
<linearGradient id="paint0_linear_37_224" x1="25.7467" y1="23.4858" x2="31.023" y2="37.0994" gradientUnits="userSpaceOnUse">
<stop stop-color="#888888"/>
<stop offset="1" stop-color="white"/>
</linearGradient>
</defs>
</svg>
